<svg xmlns="http://www.w3.org/2000/svg" xmlns:xlink="http://www.w3.org/1999/xlink" width="500" zoomAndPan="magnify" viewBox="0 0 375 374.999991" height="500" preserveAspectRatio="xMidYMid meet" version="1.0"><defs><clipPath id="e8afe2b8d4"><path d="M 17.015625 107 L 214 107 L 214 209 L 17.015625 209 Z M 17.015625 107 " clip-rule="nonzero"/></clipPath><clipPath id="2ecf69d191"><path d="M 17.015625 101 L 226 101 L 226 180 L 17.015625 180 Z M 17.015625 101 " clip-rule="nonzero"/></clipPath><clipPath id="6c6f92b406"><path d="M 167 17.015625 L 268 17.015625 L 268 214 L 167 214 Z M 167 17.015625 " clip-rule="nonzero"/></clipPath><clipPath id="8e335bb608"><path d="M 195 17.015625 L 275 17.015625 L 275 226 L 195 226 Z M 195 17.015625 " clip-rule="nonzero"/></clipPath><clipPath id="97a4335df3"><path d="M 150 195 L 358.265625 195 L 358.265625 275 L 150 275 Z M 150 195 " clip-rule="nonzero"/></clipPath><clipPath id="12cec5aa69"><path d="M 101 150 L 180 150 L 180 358.265625 L 101 358.265625 Z M 101 150 " clip-rule="nonzero"/></clipPath></defs><path fill="#000000" d="M 23.214844 234.734375 C 40.480469 150.933594 117.222656 98.765625 200.679688 113.773438 C 118.742188 101.734375 44.824219 154.011719 30.628906 236.140625 Z M 23.214844 234.734375 " fill-opacity="1" fill-rule="nonzero"/><g clip-path="url(#e8afe2b8d4)"><path fill="#000000" d="M 17.535156 205.464844 C 49.089844 125.933594 133.730469 87.886719 213.308594 117.15625 C 134.710938 91.074219 52.835938 129.71875 24.59375 208.136719 Z M 17.535156 205.464844 " fill-opacity="1" fill-rule="nonzero"/></g><g clip-path="url(#2ecf69d191)"><path fill="#000000" d="M 17.027344 175.65625 C 61.914062 102.8125 151.871094 80.039062 225.160156 122.683594 C 152.285156 83.347656 64.945312 107.191406 23.511719 179.511719 Z M 17.027344 175.65625 " fill-opacity="1" fill-rule="nonzero"/></g><path fill="#000000" d="M 21.703125 146.210938 C 78.554688 82.265625 171.101562 75.460938 235.871094 130.183594 C 170.933594 78.789062 80.78125 87.105469 27.421875 151.132812 Z M 21.703125 146.210938 " fill-opacity="1" fill-rule="nonzero"/><path fill="#000000" d="M 31.417969 118.023438 C 98.511719 64.921875 190.835938 74.292969 245.117188 139.429688 C 190.089844 77.542969 99.863281 70.074219 36.195312 123.863281 Z M 31.417969 118.023438 " fill-opacity="1" fill-rule="nonzero"/><path fill="#000000" d="M 45.882812 91.949219 C 121.179688 51.308594 210.472656 76.566406 252.621094 150.140625 C 209.175781 79.636719 121.613281 56.617188 49.574219 98.53125 Z M 45.882812 91.949219 " fill-opacity="1" fill-rule="nonzero"/><path fill="#000000" d="M 64.65625 68.785156 C 145.863281 41.835938 229.414062 82.21875 258.144531 161.992188 C 227.605469 85.015625 145.371094 47.140625 67.148438 75.910156 Z M 64.65625 68.785156 " fill-opacity="1" fill-rule="nonzero"/><path fill="#000000" d="M 87.164062 49.234375 C 171.820312 36.796875 247.089844 91.070312 261.53125 174.625 C 244.820312 93.511719 170.414062 41.933594 88.382812 56.683594 Z M 87.164062 49.234375 " fill-opacity="1" fill-rule="nonzero"/><path fill="#000000" d="M 112.726562 33.886719 C 198.257812 36.339844 262.957031 102.859375 262.671875 187.652344 C 260.296875 104.871094 195.980469 41.152344 112.632812 41.433594 Z M 112.726562 33.886719 " fill-opacity="1" fill-rule="nonzero"/><path fill="#000000" d="M 140.566406 23.214844 C 224.371094 40.480469 276.535156 117.226562 261.53125 200.679688 C 273.570312 118.742188 221.292969 44.824219 139.160156 30.628906 Z M 140.566406 23.214844 " fill-opacity="1" fill-rule="nonzero"/><g clip-path="url(#6c6f92b406)"><path fill="#000000" d="M 169.835938 17.535156 C 249.367188 49.089844 287.414062 133.730469 258.144531 213.308594 C 284.230469 134.710938 245.582031 52.835938 167.164062 24.59375 Z M 169.835938 17.535156 " fill-opacity="1" fill-rule="nonzero"/></g><g clip-path="url(#8e335bb608)"><path fill="#000000" d="M 199.648438 17.027344 C 272.492188 61.914062 295.261719 151.871094 252.621094 225.160156 C 291.957031 152.285156 268.113281 64.945312 195.792969 23.511719 Z M 199.648438 17.027344 " fill-opacity="1" fill-rule="nonzero"/></g><path fill="#000000" d="M 229.09375 21.703125 C 293.035156 78.554688 299.839844 171.101562 245.117188 235.871094 C 296.511719 170.933594 288.199219 80.78125 224.167969 27.421875 Z M 229.09375 21.703125 " fill-opacity="1" fill-rule="nonzero"/><path fill="#000000" d="M 257.28125 31.417969 C 310.378906 98.511719 301.011719 190.835938 235.871094 245.117188 C 297.761719 190.089844 305.230469 99.863281 251.4375 36.195312 Z M 257.28125 31.417969 " fill-opacity="1" fill-rule="nonzero"/><path fill="#000000" d="M 283.351562 45.882812 C 323.996094 121.179688 298.734375 210.472656 225.160156 252.621094 C 295.664062 209.175781 318.6875 121.613281 276.769531 49.574219 Z M 283.351562 45.882812 " fill-opacity="1" fill-rule="nonzero"/><path fill="#000000" d="M 306.515625 64.65625 C 333.464844 145.863281 293.085938 229.414062 213.308594 258.144531 C 290.285156 227.605469 328.164062 145.371094 299.390625 67.148438 Z M 306.515625 64.65625 " fill-opacity="1" fill-rule="nonzero"/><path fill="#000000" d="M 326.066406 87.164062 C 338.507812 171.820312 284.230469 247.089844 200.679688 261.53125 C 281.789062 244.820312 333.371094 170.414062 318.621094 88.382812 Z M 326.066406 87.164062 " fill-opacity="1" fill-rule="nonzero"/><path fill="#000000" d="M 341.414062 112.726562 C 338.964844 198.257812 272.441406 262.957031 187.652344 262.671875 C 270.433594 260.296875 334.148438 195.980469 333.867188 112.632812 Z M 341.414062 112.726562 " fill-opacity="1" fill-rule="nonzero"/><path fill="#000000" d="M 352.089844 140.566406 C 334.824219 224.371094 258.078125 276.535156 174.625 261.53125 C 256.558594 273.570312 330.476562 221.292969 344.675781 139.160156 Z M 352.089844 140.566406 " fill-opacity="1" fill-rule="nonzero"/><path fill="#000000" d="M 357.765625 169.835938 C 326.210938 249.367188 241.574219 287.414062 161.992188 258.144531 C 240.59375 284.230469 322.464844 245.582031 350.707031 167.164062 Z M 357.765625 169.835938 " fill-opacity="1" fill-rule="nonzero"/><g clip-path="url(#97a4335df3)"><path fill="#000000" d="M 358.277344 199.648438 C 313.390625 272.492188 223.429688 295.261719 150.140625 252.621094 C 223.019531 291.957031 310.359375 268.113281 351.789062 195.792969 Z M 358.277344 199.648438 " fill-opacity="1" fill-rule="nonzero"/></g><path fill="#000000" d="M 353.601562 229.09375 C 296.746094 293.035156 204.199219 299.839844 139.429688 245.117188 C 204.367188 296.511719 294.523438 288.199219 347.882812 224.167969 Z M 353.601562 229.09375 " fill-opacity="1" fill-rule="nonzero"/><path fill="#000000" d="M 343.882812 257.28125 C 276.789062 310.378906 184.46875 301.011719 130.183594 235.871094 C 185.210938 297.761719 275.4375 305.230469 339.105469 251.4375 Z M 343.882812 257.28125 " fill-opacity="1" fill-rule="nonzero"/><path fill="#000000" d="M 329.417969 283.351562 C 254.125 323.996094 164.832031 298.734375 122.683594 225.160156 C 166.128906 295.664062 253.6875 318.6875 325.730469 276.769531 Z M 329.417969 283.351562 " fill-opacity="1" fill-rule="nonzero"/><path fill="#000000" d="M 310.648438 306.515625 C 229.4375 333.464844 145.886719 293.085938 117.15625 213.308594 C 147.699219 290.285156 229.929688 328.164062 308.15625 299.390625 Z M 310.648438 306.515625 " fill-opacity="1" fill-rule="nonzero"/><path fill="#000000" d="M 288.136719 326.066406 C 203.484375 338.507812 128.214844 284.230469 113.773438 200.679688 C 130.484375 281.789062 204.890625 333.371094 286.921875 318.621094 Z M 288.136719 326.066406 " fill-opacity="1" fill-rule="nonzero"/><path fill="#000000" d="M 262.574219 341.414062 C 177.046875 338.964844 112.347656 272.441406 112.632812 187.652344 C 115.003906 270.433594 179.324219 334.148438 262.671875 333.867188 Z M 262.574219 341.414062 " fill-opacity="1" fill-rule="nonzero"/><path fill="#000000" d="M 234.734375 352.089844 C 150.933594 334.824219 98.765625 258.078125 113.773438 174.625 C 101.734375 256.558594 154.011719 330.476562 236.140625 344.675781 Z M 234.734375 352.089844 " fill-opacity="1" fill-rule="nonzero"/><path fill="#000000" d="M 205.464844 357.765625 C 125.933594 326.210938 87.886719 241.574219 117.15625 161.992188 C 91.074219 240.59375 129.71875 322.464844 208.136719 350.707031 Z M 205.464844 357.765625 " fill-opacity="1" fill-rule="nonzero"/><g clip-path="url(#12cec5aa69)"><path fill="#000000" d="M 175.65625 358.277344 C 102.8125 313.390625 80.039062 223.429688 122.683594 150.140625 C 83.347656 223.019531 107.191406 310.359375 179.511719 351.789062 Z M 175.65625 358.277344 " fill-opacity="1" fill-rule="nonzero"/></g><path fill="#000000" d="M 146.210938 353.601562 C 82.265625 296.746094 75.460938 204.199219 130.183594 139.429688 C 78.789062 204.367188 87.105469 294.523438 151.132812 347.882812 Z M 146.210938 353.601562 " fill-opacity="1" fill-rule="nonzero"/><path fill="#000000" d="M 118.023438 343.882812 C 64.921875 276.789062 74.292969 184.46875 139.429688 130.183594 C 77.542969 185.210938 70.074219 275.4375 123.863281 339.105469 Z M 118.023438 343.882812 " fill-opacity="1" fill-rule="nonzero"/><path fill="#000000" d="M 91.949219 329.417969 C 51.308594 254.125 76.566406 164.832031 150.140625 122.683594 C 79.636719 166.128906 56.617188 253.6875 98.53125 325.730469 Z M 91.949219 329.417969 " fill-opacity="1" fill-rule="nonzero"/><path fill="#000000" d="M 68.785156 310.648438 C 41.835938 229.4375 82.21875 145.886719 161.992188 117.15625 C 85.015625 147.699219 47.140625 229.929688 75.910156 308.15625 Z M 68.785156 310.648438 " fill-opacity="1" fill-rule="nonzero"/><path fill="#000000" d="M 49.234375 288.136719 C 36.796875 203.484375 91.070312 128.214844 174.625 113.773438 C 93.511719 130.484375 41.933594 204.890625 56.683594 286.921875 Z M 49.234375 288.136719 " fill-opacity="1" fill-rule="nonzero"/><path fill="#000000" d="M 33.886719 262.574219 C 36.339844 177.046875 102.859375 112.347656 187.652344 112.632812 C 104.871094 115.003906 41.152344 179.324219 41.433594 262.671875 Z M 33.886719 262.574219 " fill-opacity="1" fill-rule="nonzero"/></svg>